# File created by Blade
# Date/Time:  Tue Apr 07 20:35:32 2015
# Frame Rate: 120.000 fps
#------------------------------------------------------
:FULLY-SPECIFIED
:DEGREES
1620
root 2.217349 34.820063 -5.427301 60.872221 -7.387323 -34.398483
Spine -24.129460 1.987773 13.202370
Head -9.669016 10.774514 11.800280
LeftShoulder -30.863325 43.670608 8.525179
LeftArm 54.092362 -48.011260 -81.410421
LeftForeArm 15.418357 0.000000 42.469512
LeftHand 10.525861 -0.000000 17.726920
LeftHandThumb1 -26.253704 0.000000 33.147579
RightShoulder -9.348337 -44.590271 -19.016661
RightArm -19.909976 -50.831445 86.208981
RightForeArm 76.030509 0.000000 66.765838
RightHand -0.215362 -0.000000 -9.152651
RightHandThumb1 -24.326973 -0.000000 -32.862282
LeftUpLeg -53.024955 21.336455 27.590355
LeftLeg 7.621025 -0.000000 -0.000000
LeftFoot -1.785669 10.743880 -24.363295
LeftToeBase -9.845959 -0.000000 0.000000
RightUpLeg 15.062293 17.680439 -23.915556
RightLeg 148.926608 -0.000000 -0.000000
RightFoot 43.392045 11.816157 -12.151346
RightToeBase 35.297871 -0.000000 -0.000000
1621
root 2.218542 34.804710 -5.424925 60.736466 -7.249493 -34.644049
Spine -24.144679 2.089666 13.494679
Head -9.368049 10.813729 11.816465
LeftShoulder -31.018865 43.605759 8.341908
LeftArm 53.997192 -48.079087 -81.148234
LeftForeArm 15.398752 -0.000000 42.600389
LeftHand 10.535673 -0.000000 17.574819
LeftHandThumb1 -26.253704 0.000000 33.147579
RightShoulder -8.981018 -44.693356 -19.389744
RightArm -19.984715 -51.089275 86.211032
RightForeArm 75.865085 0.000000 67.098112
RightHand -0.336932 0.000000 -9.556790
RightHandThumb1 -24.326973 -0.000000 -32.862282
LeftUpLeg -52.755587 21.843638 27.018272
LeftLeg 6.826002 -0.000000 -0.000000
LeftFoot -1.840319 10.971846 -23.563899
LeftToeBase -9.238502 -0.000000 0.000000
RightUpLeg 15.196195 17.893588 -23.682507
RightLeg 148.907380 -0.000000 -0.000000
RightFoot 43.401612 11.638721 -12.102423
RightToeBase 35.262693 -0.000000 -0.000000
1622
root 2.220321 34.792116 -5.427945 60.630616 -7.062218 -34.833311
Spine -24.166182 2.142301 13.772435
Head -9.232092 10.812646 11.868840
LeftShoulder -31.178636 43.534672 8.195451
LeftArm 53.997879 -48.169166 -81.058651
LeftForeArm 15.331302 -0.000000 42.742576
LeftHand 10.550603 -0.000000 17.364742
LeftHandThumb1 -26.253704 0.000000 33.147579
RightShoulder -8.643414 -44.722240 -19.708244
RightArm -20.104622 -51.318968 86.320007
RightForeArm 75.740482 -0.000000 67.326709
RightHand -0.308534 -0.000000 -9.961608
RightHandThumb1 -24.326973 -0.000000 -32.862282
LeftUpLeg -52.632422 22.340788 26.416268
LeftLeg 6.108702 -0.000000 -0.000000
LeftFoot -1.967553 11.158033 -23.129671
LeftToeBase -8.377044 -0.000000 0.000000
RightUpLeg 15.260182 17.948982 -23.450886
RightLeg 148.946486 -0.000000 -0.000000
RightFoot 43.391723 11.390429 -11.996119
RightToeBase 35.334959 -0.000000 -0.000000
1623
root 2.226871 34.780483 -5.436398 60.545519 -6.903210 -34.953206
Spine -24.181262 2.242997 13.910373
Head -9.272472 10.738218 12.000852
LeftShoulder -31.190354 43.453967 8.197322
LeftArm 54.008286 -48.286365 -81.077354
LeftForeArm 15.303139 -0.000000 42.939683
LeftHand 10.528226 0.000000 17.222012
LeftHandThumb1 -26.253704 0.000000 33.147579
RightShoulder -8.480865 -44.778034 -19.834662
RightArm -20.124920 -51.506640 86.408507
RightForeArm 75.906864 -0.000000 67.469773
RightHand -0.272333 0.000000 -10.333945
RightHandThumb1 -24.326973 -0.000000 -32.862282
LeftUpLeg -52.579732 22.780395 25.798068
LeftLeg 5.452365 -0.000000 -0.000000
LeftFoot -2.068169 11.206474 -22.828001
LeftToeBase -7.553860 -0.000000 0.000000
RightUpLeg 15.250804 17.912208 -23.306953
RightLeg 149.045716 -0.000000 -0.000000
RightFoot 43.380672 11.133060 -11.896366
RightToeBase 35.172195 -0.000000 -0.000000
